<svg width="14" height="14" viewBox="0 0 14 14" fill="none" xmlns="http://www.w3.org/2000/svg">
<path fill-rule="evenodd" clip-rule="evenodd" d="M8.11026 6.88992L13.2682 1.73185C13.5448 1.45531 13.5448 1.00832 13.2682 0.731784C12.9917 0.455245 12.5447 0.455245 12.2682 0.731784L7.1102 5.88985L1.95221 0.731784C1.67567 0.455245 1.22869 0.455245 0.952153 0.731784C0.675617 1.00832 0.675617 1.45531 0.952153 1.73185L6.11015 6.88992L0.952153 12.048C0.675617 12.3245 0.675617 12.7715 0.952153 13.0481C1.09007 13.186 1.27112 13.2553 1.45218 13.2553C1.63324 13.2553 1.81429 13.186 1.95221 13.0481L7.1102 7.88999L12.2682 13.0481C12.4061 13.186 12.5872 13.2553 12.7682 13.2553C12.9493 13.2553 13.1303 13.186 13.2682 13.0481C13.5448 12.7715 13.5448 12.3245 13.2682 12.048L8.11026 6.88992Z" fill="#1D1D1B"/>
</svg>
