<svg width="136" height="50" viewBox="0 0 136 50" fill="none" xmlns="http://www.w3.org/2000/svg">
<path d="M53.0903 24.5606C51.5894 24.5606 49.8807 24.6694 48.7954 24.8409C48.1291 24.9498 47.8157 25.1444 47.6904 25.8765L45.2098 40.3747C45.2098 40.3978 45.2098 40.4176 45.2098 40.4407C45.2098 40.655 45.355 40.787 45.5628 40.787H48.2512C48.4788 40.787 48.7097 40.5924 48.7525 40.3549L49.6267 35.111C50.1479 35.1341 50.8142 35.177 51.3156 35.177C54.921 35.177 57.9854 34.0326 58.4242 29.9562L58.4439 29.7616C58.4637 29.4813 58.4868 29.2009 58.4868 28.9404C58.4868 25.8534 56.257 24.5606 53.0903 24.5606ZM54.9012 29.7583L54.8814 29.9529C54.7132 31.4403 53.6939 32.1329 51.8368 32.1329C51.6059 32.1329 50.3788 32.1098 50.1479 32.09L50.8967 27.6904C51.1474 27.6707 52.3151 27.6245 52.6054 27.6245C54.1887 27.6245 54.9177 28.1192 54.9177 29.3494C54.9243 29.478 54.9243 29.6099 54.9012 29.7583Z" fill="white"/>
<path d="M67.3239 24.5606C63.8439 24.5606 60.885 26.1371 59.9647 31.4865L59.526 34.0524C59.4204 34.6361 59.3808 35.1737 59.3808 35.6915C59.3808 39.2303 61.6536 40.9782 64.5069 40.9782C68.4257 40.9782 71.0085 39.1017 71.8629 34.0524L72.3016 31.4865C72.4071 30.8829 72.4467 30.3223 72.4467 29.8045C72.4533 26.1338 70.1179 24.5606 67.3239 24.5606ZM68.7226 31.4865L68.2839 34.0524C67.8451 36.6413 66.8259 37.7429 65.0743 37.7429C63.6987 37.7429 62.9895 37.1822 62.9895 35.5629C62.9895 35.1308 63.0324 34.6361 63.1347 34.0524L63.5734 31.4865C64.0319 28.7887 65.0116 27.796 66.7632 27.796C68.1585 27.796 68.8677 28.4424 68.8677 30.0617C68.8677 30.4707 68.805 30.9456 68.7226 31.4865Z" fill="white"/>
<path d="M81.1023 24.5606C79.3738 24.5606 77.4771 24.7321 76.5997 24.8838C76.184 24.9498 75.9531 25.1411 75.8707 25.6391L73.433 39.8998C73.4132 39.9855 73.4132 40.0515 73.4132 40.1142C73.4132 40.4605 73.6012 40.5891 73.9146 40.655C74.7491 40.8067 76.5601 40.9782 78.2919 40.9782C82.9199 40.9782 85.2751 39.0357 86.1063 34.1612L86.5847 31.3777C86.6902 30.8368 86.7298 30.319 86.7298 29.8243C86.7298 26.4801 84.5626 24.5606 81.1023 24.5606ZM83.0188 31.3777L82.5405 34.1612C82.0391 37.0734 80.8318 37.8517 78.8295 37.8517C78.3084 37.8517 77.642 37.8286 77.3485 37.8088L79.0769 27.7333C79.3672 27.7102 80.0368 27.6904 80.558 27.6904C82.1216 27.6904 83.1442 28.2313 83.1442 30.1079C83.1442 30.4707 83.1046 30.9027 83.0188 31.3777Z" fill="white"/>
<path d="M96.5664 38.9926C95.8176 39.0355 94.2738 39.1641 93.0863 39.1641C91.3776 39.1641 90.1472 38.2802 90.1472 35.8628C90.1472 35.3879 90.1901 34.8701 90.2924 34.2665L90.8135 31.2686C91.4403 27.6243 93.2314 26.371 95.2733 26.371C96.4839 26.371 98.0046 26.4996 98.7336 26.5656C98.9843 26.5887 99.0667 26.5227 99.0865 26.3281L99.2745 25.2266C99.3174 25.0122 99.1492 24.9661 98.9843 24.9463C98.087 24.7946 96.8599 24.6 95.5438 24.6C92.8983 24.6 89.8734 25.7873 88.9168 31.2653L88.3956 34.2632C88.2901 34.8899 88.2505 35.4703 88.2505 35.9881C88.2505 39.6555 90.6684 40.9286 92.7729 40.9286C94.5443 40.9286 95.3788 40.8197 96.2761 40.6482C96.6521 40.5823 96.7346 40.4767 96.7775 40.2162L96.9226 39.3323C96.9622 39.0586 96.9028 38.9728 96.5664 38.9926Z" fill="white"/>
<path d="M106.759 24.6033C105.842 24.6033 104.945 24.9265 104.361 26.2425L98.1067 40.2855C98.0638 40.3713 98.0638 40.4372 98.0638 40.4999C98.0638 40.6714 98.1693 40.7802 98.3541 40.7802H99.624C99.8747 40.7802 100 40.6285 100.063 40.457L102.23 35.4968H107.63L108.151 40.457C108.171 40.6285 108.257 40.7802 108.441 40.7802H109.691C109.942 40.7802 110.044 40.6087 110.044 40.3713C110.044 40.3482 110.044 40.3053 110.044 40.2855L108.586 26.2194C108.448 24.9068 107.613 24.6033 106.759 24.6033ZM102.926 33.795L106.03 26.6976C106.136 26.4601 106.281 26.3084 106.508 26.3084C106.716 26.3084 106.822 26.4601 106.841 26.6976L107.528 33.795H102.926Z" fill="white"/>
<path d="M122.622 24.8639C121.85 24.7353 119.954 24.6033 118.723 24.6033C115.89 24.6033 113.366 25.6818 113.366 28.6797C113.366 30.2331 114.221 31.4633 115.639 32.456L117.453 33.729C118.911 34.7646 119.455 35.2824 119.455 36.318C119.455 38.3661 118.06 39.1642 115.807 39.1642C114.847 39.1642 113.327 39.1213 112.39 39.0356C112.037 38.9927 111.951 39.0784 111.912 39.3818L111.766 40.2459C111.724 40.5065 111.849 40.5922 112.1 40.6351C112.997 40.7868 114.498 40.9385 115.642 40.9385C118.977 40.9385 121.458 39.3621 121.458 36.3213C121.458 34.7448 120.772 33.6037 118.832 32.2647L117.123 31.0774C115.748 30.1275 115.27 29.6098 115.27 28.5742C115.27 26.6745 117.041 26.3744 118.73 26.3744C119.94 26.3744 121.398 26.4403 122.315 26.503C122.668 26.5459 122.731 26.4173 122.774 26.1567L122.919 25.23C122.955 24.9694 122.893 24.9068 122.622 24.8639Z" fill="white"/>
<path d="M135.629 24.7549H125.601C125.37 24.7549 125.185 24.8406 125.123 25.1441L124.954 26.0939C124.911 26.3742 125.08 26.4402 125.307 26.4402H129.371L127.019 40.3513C126.976 40.5657 127.082 40.7833 127.31 40.7833H128.457C128.688 40.7833 128.873 40.5888 128.916 40.3513L131.271 26.4369H135.335C135.668 26.4369 135.751 26.3083 135.794 26.0906L135.962 25.1408C136.025 24.8406 135.856 24.7549 135.629 24.7549Z" fill="white"/>
<path d="M41.1889 16.4737H35.5911C35.1689 16.4737 34.7499 16.8596 34.6939 17.4664L31.5437 41.6641C31.4909 42.1588 31.4909 42.4919 31.2798 42.4919C31.0687 42.4919 31.0687 42.1621 30.9631 41.6641L26.4242 26.79C26.1075 25.4675 25.3686 24.3098 23.0991 24.3098H21.7599V22.2651C25.6028 21.9847 28.6442 18.6603 28.6442 14.6136V10.8044H28.908C29.2082 10.8044 29.449 10.5537 29.449 10.2437C29.449 9.9337 29.2082 9.68304 28.908 9.68304H27.2455C26.9454 9.68304 26.7046 9.9337 26.7046 10.2437C26.7046 10.5537 26.9454 10.8044 27.2455 10.8044H27.5622V14.6136C27.5622 18.225 24.7221 21.1635 21.2321 21.1635C17.7422 21.1635 14.902 18.225 14.902 14.6136V10.8044H15.1923C15.4925 10.8044 15.7333 10.5537 15.7333 10.2437C15.7333 9.9337 15.4925 9.68304 15.1923 9.68304H13.5298C13.2296 9.68304 12.9888 9.9337 12.9888 10.2437C12.9888 10.5537 13.2296 10.8044 13.5298 10.8044H13.8201V14.6136C13.8201 18.6504 16.8482 21.9649 20.6779 22.2618V24.3098H19.4509C17.1814 24.3098 16.4392 25.4675 16.1225 26.79L11.5836 41.6641C11.478 42.1588 11.478 42.4919 11.2669 42.4919C11.0558 42.4919 11.0558 42.1621 11.003 41.6641L7.74399 17.4664C7.69121 16.8596 7.26899 16.4737 6.84676 16.4737H1.24897C0.773971 16.4704 0.351746 16.7474 0.351746 17.2454V17.4103L4.77192 44.695C5.24692 48.1679 6.77749 49.1606 9.52525 49.1606H12.3753C14.7503 49.1606 16.017 47.9469 16.7559 44.7478L20.9286 31.0312C21.0342 30.5365 21.087 30.4244 21.2981 30.4244C21.5092 30.4244 21.5092 30.5332 21.6148 31.0312L25.7875 44.7478C26.5264 47.9469 27.7931 49.1606 30.1681 49.1606H33.0214C35.7659 49.1606 37.2965 48.1679 37.7715 44.695L42.0861 17.4103V17.2454C42.0894 16.7474 41.6672 16.4737 41.1889 16.4737Z" fill="white"/>
<path d="M21.3178 19.706C24.0161 19.6598 26.1569 17.3215 26.1569 14.528V14.5214C26.1569 14.3071 25.992 14.1389 25.7842 14.1389H24.501C24.2635 14.1389 24.0458 14.0399 23.8874 13.8783C23.7159 13.7002 23.6169 13.4529 23.6367 13.1791C23.6697 12.7042 24.0722 12.348 24.5307 12.348H25.5434C25.7116 12.348 25.8633 12.2788 25.9755 12.1633C26.0843 12.0479 26.1536 11.8929 26.1536 11.7181C26.1536 11.3685 25.8798 11.0849 25.5434 11.0849H24.4977C24.2602 11.0849 24.0425 10.9826 23.8841 10.8243C23.7126 10.6462 23.6137 10.3989 23.6334 10.1252C23.6664 9.65024 24.0689 9.29405 24.5274 9.29405H25.5401C25.7083 9.29405 25.86 9.22479 25.9722 9.10936C26.081 8.99393 26.1503 8.83562 26.1503 8.66412C26.1503 8.31453 25.8765 8.0342 25.5401 8.0342H24.4944C24.2569 8.0342 24.0392 7.93526 23.8808 7.77365C23.7093 7.59556 23.6104 7.34821 23.6301 7.07447C23.6631 6.59955 24.0656 6.24336 24.5241 6.24336H25.7776C25.9821 6.24336 26.1503 6.07186 26.1503 5.86079V5.77174C26.1503 4.36348 25.5994 3.09044 24.7088 2.17029C23.8314 1.24683 22.6109 0.679572 21.265 0.669678H21.2353C18.5239 0.669678 16.3105 3.04427 16.3105 5.85419C16.3105 6.06857 16.4754 6.23677 16.6832 6.23677H17.9664C18.2039 6.23677 18.4216 6.33571 18.5799 6.49731C18.7515 6.67541 18.8504 6.92276 18.8306 7.1965C18.7976 7.67141 18.3952 8.0276 17.9367 8.0276H16.924C16.7558 8.0276 16.604 8.09686 16.4919 8.21229C16.383 8.32772 16.3138 8.48273 16.3138 8.65753C16.3138 9.00712 16.5876 9.29075 16.924 9.29075H17.9697C18.2072 9.29075 18.4249 9.39299 18.5832 9.5513C18.7548 9.72939 18.8537 9.97674 18.8339 10.2505C18.8009 10.7254 18.3985 11.0816 17.94 11.0816H16.9273C16.7591 11.0816 16.6073 11.1508 16.4952 11.2663C16.3863 11.3817 16.3171 11.54 16.3171 11.7115C16.3171 12.0611 16.5909 12.3414 16.9273 12.3414H17.973C18.2105 12.3414 18.4282 12.4404 18.5865 12.602C18.7581 12.7801 18.857 13.0274 18.8372 13.3012C18.8042 13.7761 18.4018 14.1323 17.9433 14.1323H16.6898C16.4853 14.1323 16.3171 14.3038 16.3171 14.5148V14.6039C16.3105 17.4567 18.5601 19.7554 21.3178 19.706ZM21.232 6.19389C21.6905 6.19389 22.06 6.57646 22.06 7.05138C22.06 7.5263 21.6872 7.90887 21.232 7.90887C20.7735 7.90887 20.4041 7.5263 20.4041 7.05138C20.4041 6.57976 20.7768 6.19389 21.232 6.19389ZM21.232 9.33033C21.6905 9.33033 22.06 9.7129 22.06 10.1878C22.06 10.6627 21.6872 11.0453 21.232 11.0453C20.7735 11.0453 20.4041 10.6627 20.4041 10.1878C20.4041 9.7129 20.7768 9.33033 21.232 9.33033ZM21.232 12.4668C21.6905 12.4668 22.06 12.8493 22.06 13.3243C22.06 13.7992 21.6872 14.1817 21.232 14.1817C20.7735 14.1817 20.4041 13.7992 20.4041 13.3243C20.4041 12.8493 20.7768 12.4668 21.232 12.4668Z" fill="white"/>
</svg>
